<svg width="170" height="48" viewBox="0 0 170 48" fill="none" xmlns="http://www.w3.org/2000/svg">
<path fill-rule="evenodd" clip-rule="evenodd" d="M22 46C34.1503 46 44 36.1503 44 24C44 11.8497 34.1503 2 22 2C9.84971 2 0 11.8497 0 24C0 36.1503 9.84971 46 22 46ZM28.8632 12.2485C29.1973 11.0619 28.0457 10.3601 26.994 11.1094L12.3124 21.5685C11.1718 22.3811 11.3512 24 12.5819 24H16.448V23.9701H23.9828L17.8433 26.1363L15.1368 35.7515C14.8027 36.9382 15.9542 37.6399 17.006 36.8906L31.6876 26.4315C32.8282 25.619 32.6487 24 31.4181 24H25.5553L28.8632 12.2485Z" fill="white"/>
<path d="M55.3809 33.9083V30.4283H58.1409V16.3883H55.3809V12.9083H66.1809C67.4609 12.9083 68.5709 13.1283 69.5109 13.5683C70.4709 13.9883 71.2109 14.5983 71.7309 15.3983C72.2709 16.1783 72.5409 17.1183 72.5409 18.2183V18.5183C72.5409 19.4783 72.3609 20.2683 72.0009 20.8883C71.6409 21.4883 71.2109 21.9583 70.7109 22.2983C70.2309 22.6183 69.7709 22.8483 69.3309 22.9883V23.5283C69.7709 23.6483 70.2509 23.8783 70.7709 24.2183C71.2909 24.5383 71.7309 25.0083 72.0909 25.6283C72.4709 26.2483 72.6609 27.0583 72.6609 28.0583V28.3583C72.6609 29.5183 72.3909 30.5183 71.8509 31.3583C71.3109 32.1783 70.5609 32.8083 69.6009 33.2483C68.6609 33.6883 67.5609 33.9083 66.3009 33.9083H55.3809ZM62.1009 30.3083H65.8209C66.6809 30.3083 67.3709 30.0983 67.8909 29.6783C68.4309 29.2583 68.7009 28.6583 68.7009 27.8783V27.5783C68.7009 26.7983 68.4409 26.1983 67.9209 25.7783C67.4009 25.3583 66.7009 25.1483 65.8209 25.1483H62.1009V30.3083ZM62.1009 21.5483H65.7609C66.5809 21.5483 67.2509 21.3383 67.7709 20.9183C68.3109 20.4983 68.5809 19.9183 68.5809 19.1783V18.8783C68.5809 18.1183 68.3209 17.5383 67.8009 17.1383C67.2809 16.7183 66.6009 16.5083 65.7609 16.5083H62.1009V21.5483Z" fill="white"/>
<path d="M81.6027 34.3283C80.1227 34.3283 78.7927 34.0283 77.6127 33.4283C76.4327 32.8283 75.5027 31.9583 74.8227 30.8183C74.1427 29.6783 73.8027 28.3083 73.8027 26.7083V26.2283C73.8027 24.6283 74.1427 23.2583 74.8227 22.1183C75.5027 20.9783 76.4327 20.1083 77.6127 19.5083C78.7927 18.9083 80.1227 18.6083 81.6027 18.6083C83.0827 18.6083 84.4127 18.9083 85.5927 19.5083C86.7727 20.1083 87.7027 20.9783 88.3827 22.1183C89.0627 23.2583 89.4027 24.6283 89.4027 26.2283V26.7083C89.4027 28.3083 89.0627 29.6783 88.3827 30.8183C87.7027 31.9583 86.7727 32.8283 85.5927 33.4283C84.4127 34.0283 83.0827 34.3283 81.6027 34.3283ZM81.6027 30.9683C82.7627 30.9683 83.7227 30.5983 84.4827 29.8583C85.2427 29.0983 85.6227 28.0183 85.6227 26.6183V26.3183C85.6227 24.9183 85.2427 23.8483 84.4827 23.1083C83.7427 22.3483 82.7827 21.9683 81.6027 21.9683C80.4427 21.9683 79.4827 22.3483 78.7227 23.1083C77.9627 23.8483 77.5827 24.9183 77.5827 26.3183V26.6183C77.5827 28.0183 77.9627 29.0983 78.7227 29.8583C79.4827 30.5983 80.4427 30.9683 81.6027 30.9683Z" fill="white"/>
<path d="M91.3919 33.9083V12.9083H95.1719V33.9083H91.3919Z" fill="white"/>
<path d="M103.561 33.9083C102.581 33.9083 101.781 33.6083 101.161 33.0083C100.561 32.3883 100.261 31.5683 100.261 30.5483V22.1483H96.5406V19.0283H100.261V14.4083H104.041V19.0283H108.121V22.1483H104.041V29.8883C104.041 30.4883 104.321 30.7883 104.881 30.7883H107.761V33.9083H103.561Z" fill="white"/>
<path d="M116.222 34.3283C114.282 34.3283 112.692 33.9083 111.452 33.0683C110.212 32.2283 109.462 31.0283 109.202 29.4683L112.682 28.5683C112.822 29.2683 113.052 29.8183 113.372 30.2183C113.712 30.6183 114.122 30.9083 114.602 31.0883C115.102 31.2483 115.642 31.3283 116.222 31.3283C117.102 31.3283 117.752 31.1783 118.172 30.8783C118.592 30.5583 118.802 30.1683 118.802 29.7083C118.802 29.2483 118.602 28.8983 118.202 28.6583C117.802 28.3983 117.162 28.1883 116.282 28.0283L115.442 27.8783C114.402 27.6783 113.452 27.4083 112.592 27.0683C111.732 26.7083 111.042 26.2183 110.522 25.5983C110.002 24.9783 109.742 24.1783 109.742 23.1983C109.742 21.7183 110.282 20.5883 111.362 19.8083C112.442 19.0083 113.862 18.6083 115.622 18.6083C117.282 18.6083 118.662 18.9783 119.762 19.7183C120.862 20.4583 121.582 21.4283 121.922 22.6283L118.412 23.7083C118.252 22.9483 117.922 22.4083 117.422 22.0883C116.942 21.7683 116.342 21.6083 115.622 21.6083C114.902 21.6083 114.352 21.7383 113.972 21.9983C113.592 22.2383 113.402 22.5783 113.402 23.0183C113.402 23.4983 113.602 23.8583 114.002 24.0983C114.402 24.3183 114.942 24.4883 115.622 24.6083L116.462 24.7583C117.582 24.9583 118.592 25.2283 119.492 25.5683C120.412 25.8883 121.132 26.3583 121.652 26.9783C122.192 27.5783 122.462 28.3983 122.462 29.4383C122.462 30.9983 121.892 32.2083 120.752 33.0683C119.632 33.9083 118.122 34.3283 116.222 34.3283Z" fill="white"/>
<path d="M124.275 33.9083V12.9083H128.055V20.8583H128.595C128.755 20.5383 129.005 20.2183 129.345 19.8983C129.685 19.5783 130.135 19.3183 130.695 19.1183C131.275 18.8983 132.005 18.7883 132.885 18.7883C134.045 18.7883 135.055 19.0583 135.915 19.5983C136.795 20.1183 137.475 20.8483 137.955 21.7883C138.435 22.7083 138.675 23.7883 138.675 25.0283V33.9083H134.895V25.3283C134.895 24.2083 134.615 23.3683 134.055 22.8083C133.515 22.2483 132.735 21.9683 131.715 21.9683C130.555 21.9683 129.655 22.3583 129.015 23.1383C128.375 23.8983 128.055 24.9683 128.055 26.3483V33.9083H124.275Z" fill="white"/>
<path d="M141.261 33.9083V19.0283H145.041V33.9083H141.261ZM143.151 17.2883C142.471 17.2883 141.891 17.0683 141.411 16.6283C140.951 16.1883 140.721 15.6083 140.721 14.8883C140.721 14.1683 140.951 13.5883 141.411 13.1483C141.891 12.7083 142.471 12.4883 143.151 12.4883C143.851 12.4883 144.431 12.7083 144.891 13.1483C145.351 13.5883 145.581 14.1683 145.581 14.8883C145.581 15.6083 145.351 16.1883 144.891 16.6283C144.431 17.0683 143.851 17.2883 143.151 17.2883Z" fill="white"/>
<path d="M150.19 33.9083V22.1483H146.41V19.0283H150.19V16.2683C150.19 15.2483 150.49 14.4383 151.09 13.8383C151.71 13.2183 152.51 12.9083 153.49 12.9083H157.39V16.0283H154.81C154.25 16.0283 153.97 16.3283 153.97 16.9283V19.0283H157.87V22.1483H153.97V33.9083H150.19Z" fill="white"/>
<path d="M164.703 33.9083C163.723 33.9083 162.923 33.6083 162.303 33.0083C161.703 32.3883 161.403 31.5683 161.403 30.5483V22.1483H157.683V19.0283H161.403V14.4083H165.183V19.0283H169.263V22.1483H165.183V29.8883C165.183 30.4883 165.463 30.7883 166.023 30.7883H168.903V33.9083H164.703Z" fill="white"/>
</svg>
