<svg width="167" height="48" viewBox="0 0 167 48" fill="none" xmlns="http://www.w3.org/2000/svg">
<circle cx="22.5" cy="24.25" r="20.5" stroke="white" stroke-width="3"/>
<path d="M30.631 32.3824C26.4917 36.5218 21.8021 39.224 17.6258 40.2979C13.4117 41.3816 10.015 40.7578 8.00363 38.7464C5.99222 36.735 5.36844 33.3383 6.45206 29.1243C7.52598 24.9479 10.2282 20.2584 14.3676 16.119C18.507 11.9796 23.1965 9.27735 27.3729 8.20343C31.587 7.11981 34.9836 7.74359 36.995 9.755C39.0064 11.7664 39.6302 15.163 38.5466 19.3771C37.4727 23.5535 34.7704 28.243 30.631 32.3824Z" stroke="white" stroke-width="3"/>
<path d="M30.6324 16.119C34.7718 20.2583 37.474 24.9479 38.5479 29.1242C39.6316 33.3383 39.0078 36.735 36.9964 38.7464C34.985 40.7578 31.5883 41.3816 27.3743 40.2979C23.1979 39.224 18.5084 36.5218 14.369 32.3824C10.2296 28.243 7.52735 23.5535 6.45343 19.3771C5.36981 15.163 5.99359 11.7664 8.005 9.75499C10.0164 7.74358 13.413 7.1198 17.6271 8.20342C21.8035 9.27734 26.493 11.9796 30.6324 16.119Z" stroke="white" stroke-width="3"/>
<path d="M63.3507 34.2405C68.0607 34.2405 71.2407 31.7805 71.2407 27.8505C71.2407 19.5405 60.2007 23.0805 60.2007 18.7005C60.2007 17.4705 61.3107 16.6305 63.0807 16.6305C65.0907 16.6305 66.3507 17.7105 66.5007 19.3605H70.7907C70.6707 15.3705 67.6107 12.7605 63.0807 12.7605C58.8207 12.7605 55.8207 15.2205 55.8207 18.7005C55.8207 26.9505 66.7107 23.8005 66.7107 27.9105C66.7107 29.5005 65.3607 30.3405 63.3507 30.3405C61.1307 30.3405 59.7207 28.9905 59.5407 26.8605H55.2207C55.4007 31.3305 58.5807 34.2405 63.3507 34.2405Z" fill="white"/>
<path d="M72.2609 40.1205H76.4309V32.6505C77.2409 33.6705 78.7109 34.2405 80.4209 34.2405C84.7709 34.2405 87.7109 31.1505 87.7109 26.4405C87.7109 21.7305 85.0109 18.6405 80.7809 18.6405C78.8309 18.6405 77.3309 19.3605 76.4309 20.5305V18.8805H72.2609V40.1205ZM79.9109 30.6405C77.6609 30.6405 76.1909 28.9605 76.1909 26.4405C76.1909 23.8905 77.6609 22.2105 79.9109 22.2105C82.1009 22.2105 83.6009 23.8905 83.6009 26.4405C83.6009 28.9605 82.1009 30.6405 79.9109 30.6405Z" fill="white"/>
<path d="M88.7199 34.0005H92.8899V25.7205C92.8899 23.7705 94.1799 22.3605 96.0099 22.3605C97.7499 22.3605 98.9499 23.6805 98.9499 25.5105V34.0005H103.12V24.5805C103.12 21.1005 100.9 18.6405 97.5099 18.6405C95.4099 18.6405 93.7599 19.5105 92.8899 20.9805V12.3105H88.7199V34.0005Z" fill="white"/>
<path d="M114.785 28.8705C114.455 30.1605 113.345 30.8205 111.665 30.8205C109.565 30.8205 108.215 29.5005 107.915 27.3705H118.775C118.805 27.0405 118.835 26.5905 118.835 26.0205C118.835 22.5705 116.705 18.6405 111.365 18.6405C106.235 18.6405 103.895 22.5705 103.895 26.4105C103.895 30.2205 106.535 34.2405 111.665 34.2405C115.385 34.2405 118.265 32.1405 118.865 28.8705H114.785ZM111.365 21.7005C113.375 21.7005 114.545 23.0505 114.665 24.7305H107.975C108.335 22.6305 109.475 21.7005 111.365 21.7005Z" fill="white"/>
<path d="M129.772 22.3605V18.8805H127.62C125.79 18.8805 124.65 19.5105 123.84 21.4005V18.8805H119.64V34.0005H123.84V26.6505C123.84 24.0705 124.77 22.3605 126.84 22.3605H129.772Z" fill="white"/>
<path d="M144.172 18.8805H139.972V27.1605C139.972 29.0805 138.682 30.5205 136.852 30.5205C135.142 30.5205 133.942 29.2005 133.942 27.3705V18.8805H129.772V28.3005C129.772 31.7505 131.992 34.2405 135.382 34.2405C137.452 34.2405 139.132 33.3405 139.972 31.9005V34.0005H144.172V18.8805Z" fill="white"/>
<path d="M145.972 34.0005H150.142V12.3105H145.972V34.0005Z" fill="white"/>
<path d="M162.047 28.8705C161.717 30.1605 160.607 30.8205 158.927 30.8205C156.827 30.8205 155.477 29.5005 155.177 27.3705H166.037C166.067 27.0405 166.097 26.5905 166.097 26.0205C166.097 22.5705 163.967 18.6405 158.627 18.6405C153.497 18.6405 151.157 22.5705 151.157 26.4105C151.157 30.2205 153.797 34.2405 158.927 34.2405C162.647 34.2405 165.527 32.1405 166.127 28.8705H162.047ZM158.627 21.7005C160.637 21.7005 161.807 23.0505 161.927 24.7305H155.237C155.597 22.6305 156.737 21.7005 158.627 21.7005Z" fill="white"/>
</svg>
