<svg width="57" height="57" viewBox="0 0 57 57" fill="none" xmlns="http://www.w3.org/2000/svg">
<g clip-path="url(#clip0_72_8733)">
<g filter="url(#filter0_ii_72_8733)">
<path d="M56.82 28.91C56.82 44.0481 44.5481 56.32 29.41 56.32C14.2719 56.32 2 44.0481 2 28.91C2 13.7719 14.2719 1.5 29.41 1.5C44.5481 1.5 56.82 13.7719 56.82 28.91Z" fill="white" fill-opacity="0.26"/>
</g>
<g filter="url(#filter1_i_72_8733)">
<path d="M26.277 16.2974C25.6177 17.7283 25.25 19.3212 25.25 21C25.25 27.2132 30.2867 32.25 36.5 32.25C38.1787 32.25 39.7717 31.8822 41.2025 31.223C39.9597 36.8171 34.9684 41 29 41C22.0964 41 16.5 35.4035 16.5 28.5C16.5 22.5316 20.6829 17.5403 26.277 16.2974ZM36.7052 16.3638L37.75 16.625V17.875L36.7052 18.1362C35.8095 18.3601 35.1101 19.0595 34.8862 19.9552L34.625 21H33.375L33.1137 19.9552C32.8899 19.0595 32.1905 18.3601 31.2947 18.1362L30.25 17.875V16.625L31.2947 16.3638C32.1905 16.1399 32.8899 15.4405 33.1137 14.5448L33.375 13.5H34.625L34.8862 14.5448C35.1101 15.4405 35.8095 16.1399 36.7052 16.3638ZM42.9552 22.6138L44 22.875V24.125L42.9552 24.3862C42.0595 24.6101 41.3601 25.3095 41.1362 26.2052L40.875 27.25H39.625L39.3637 26.2052C39.1399 25.3095 38.4405 24.6101 37.5447 24.3862L36.5 24.125V22.875L37.5447 22.6138C38.4405 22.3899 39.1399 21.6905 39.3637 20.7948L39.625 19.75H40.875L41.1362 20.7948C41.3601 21.6905 42.0595 22.3899 42.9552 22.6138Z" fill="white" fill-opacity="0.6"/>
</g>
</g>
<defs>
<filter id="filter0_ii_72_8733" x="2" y="1.5" width="54.8203" height="57.088" filterUnits="userSpaceOnUse" color-interpolation-filters="sRGB">
<feFlood flood-opacity="0" result="BackgroundImageFix"/>
<feBlend mode="normal" in="SourceGraphic" in2="BackgroundImageFix" result="shape"/>
<feColorMatrix in="SourceAlpha" type="matrix" values="0 0 0 0 0 0 0 0 0 0 0 0 0 0 0 0 0 0 127 0" result="hardAlpha"/>
<feOffset dy="2.26765"/>
<feGaussianBlur stdDeviation="1.13383"/>
<feComposite in2="hardAlpha" operator="arithmetic" k2="-1" k3="1"/>
<feColorMatrix type="matrix" values="0 0 0 0 1 0 0 0 0 1 0 0 0 0 1 0 0 0 0.15 0"/>
<feBlend mode="normal" in2="shape" result="effect1_innerShadow_72_8733"/>
<feColorMatrix in="SourceAlpha" type="matrix" values="0 0 0 0 0 0 0 0 0 0 0 0 0 0 0 0 0 0 127 0" result="hardAlpha"/>
<feOffset/>
<feGaussianBlur stdDeviation="17.0074"/>
<feComposite in2="hardAlpha" operator="arithmetic" k2="-1" k3="1"/>
<feColorMatrix type="matrix" values="0 0 0 0 1 0 0 0 0 1 0 0 0 0 1 0 0 0 0.05 0"/>
<feBlend mode="normal" in2="effect1_innerShadow_72_8733" result="effect2_innerShadow_72_8733"/>
</filter>
<filter id="filter1_i_72_8733" x="16.5" y="13.5" width="27.5" height="28.8367" filterUnits="userSpaceOnUse" color-interpolation-filters="sRGB">
<feFlood flood-opacity="0" result="BackgroundImageFix"/>
<feBlend mode="normal" in="SourceGraphic" in2="BackgroundImageFix" result="shape"/>
<feColorMatrix in="SourceAlpha" type="matrix" values="0 0 0 0 0 0 0 0 0 0 0 0 0 0 0 0 0 0 127 0" result="hardAlpha"/>
<feOffset dy="1.33672"/>
<feGaussianBlur stdDeviation="0.66836"/>
<feComposite in2="hardAlpha" operator="arithmetic" k2="-1" k3="1"/>
<feColorMatrix type="matrix" values="0 0 0 0 1 0 0 0 0 1 0 0 0 0 1 0 0 0 0.15 0"/>
<feBlend mode="normal" in2="shape" result="effect1_innerShadow_72_8733"/>
</filter>
<clipPath id="clip0_72_8733">
<rect width="57" height="56" fill="white" transform="translate(0 0.5)"/>
</clipPath>
</defs>
</svg>
