<svg width="25" height="24" viewBox="0 0 25 24" fill="none" xmlns="http://www.w3.org/2000/svg">
<path d="M9.125 15C15.5 15 15.5 8.625 15.5 8.625C15.5 8.625 15.5 15 21.875 15C15.5 15 15.5 21.375 15.5 21.375C15.5 21.375 15.5 15 9.125 15ZM6.5 2.625C6.5 2.625 6.5 6 3.125 6C6.5 6 6.5 9.375 6.5 9.375C6.5 9.375 6.5 6 9.875 6C6.5 6 6.5 2.625 6.5 2.625Z" fill="#FF6363"/>
<path d="M9.125 15C15.5 15 15.5 8.625 15.5 8.625C15.5 8.625 15.5 15 21.875 15C15.5 15 15.5 21.375 15.5 21.375C15.5 21.375 15.5 15 9.125 15ZM6.5 2.625C6.5 2.625 6.5 6 3.125 6C6.5 6 6.5 9.375 6.5 9.375C6.5 9.375 6.5 6 9.875 6C6.5 6 6.5 2.625 6.5 2.625Z" stroke="#FF6363" stroke-width="2.25" stroke-linecap="round" stroke-linejoin="round"/>
</svg>
