<svg width="25" height="25" viewBox="0 0 25 25" fill="none" xmlns="http://www.w3.org/2000/svg">
<path d="M8.79688 15.3906C15.1719 15.3906 15.1719 9.01562 15.1719 9.01562C15.1719 9.01562 15.1719 15.3906 21.5469 15.3906C15.1719 15.3906 15.1719 21.7656 15.1719 21.7656C15.1719 21.7656 15.1719 15.3906 8.79688 15.3906ZM6.17188 3.01562C6.17188 3.01562 6.17188 6.39062 2.79688 6.39062C6.17188 6.39062 6.17188 9.76562 6.17188 9.76562C6.17188 9.76562 6.17188 6.39062 9.54688 6.39062C6.17188 6.39062 6.17188 3.01562 6.17188 3.01562Z" fill="#2BE295"/>
<path d="M8.79688 15.3906C15.1719 15.3906 15.1719 9.01562 15.1719 9.01562C15.1719 9.01562 15.1719 15.3906 21.5469 15.3906C15.1719 15.3906 15.1719 21.7656 15.1719 21.7656C15.1719 21.7656 15.1719 15.3906 8.79688 15.3906ZM6.17188 3.01562C6.17188 3.01562 6.17188 6.39062 2.79688 6.39062C6.17188 6.39062 6.17188 9.76562 6.17188 9.76562C6.17188 9.76562 6.17188 6.39062 9.54688 6.39062C6.17188 6.39062 6.17188 3.01562 6.17188 3.01562Z" stroke="#2BE295" stroke-width="2.25" stroke-linecap="round" stroke-linejoin="round"/>
</svg>
