<svg width="25" height="24" viewBox="0 0 25 24" fill="none" xmlns="http://www.w3.org/2000/svg">
<path d="M15.875 8.625C15.875 8.625 12.2975 12.435 11.375 15.375L9.125 13.125M21.875 12C21.875 14.4864 20.8873 16.871 19.1291 18.6291C17.371 20.3873 14.9864 21.375 12.5 21.375C10.0136 21.375 7.62903 20.3873 5.87087 18.6291C4.11272 16.871 3.125 14.4864 3.125 12C3.125 9.5136 4.11272 7.12903 5.87087 5.37087C7.62903 3.61272 10.0136 2.625 12.5 2.625C14.9864 2.625 17.371 3.61272 19.1291 5.37087C20.8873 7.12903 21.875 9.5136 21.875 12Z" stroke="white" stroke-opacity="0.6" stroke-width="2.25" stroke-linecap="round" stroke-linejoin="round"/>
</svg>
