<svg width="25" height="25" viewBox="0 0 25 25" fill="none" xmlns="http://www.w3.org/2000/svg">
<path d="M15.5469 9.01562C15.5469 9.01562 11.9694 12.8256 11.0469 15.7656L8.79688 13.5156M21.5469 12.3906C21.5469 14.877 20.5592 17.2616 18.801 19.0198C17.0428 20.7779 14.6583 21.7656 12.1719 21.7656C9.68547 21.7656 7.3009 20.7779 5.54275 19.0198C3.7846 17.2616 2.79688 14.877 2.79688 12.3906C2.79688 9.90422 3.7846 7.51965 5.54275 5.7615C7.3009 4.00335 9.68547 3.01563 12.1719 3.01562C14.6583 3.01563 17.0428 4.00335 18.801 5.7615C20.5592 7.51965 21.5469 9.90422 21.5469 12.3906Z" stroke="#2BE295" stroke-width="2.25" stroke-linecap="round" stroke-linejoin="round"/>
</svg>
