<svg width="56" height="57" viewBox="0 0 56 57" fill="none" xmlns="http://www.w3.org/2000/svg">
<g filter="url(#filter0_ii_72_8726)">
<path d="M40.5065 3H15.3672C7.9847 3 2 8.9847 2 16.3672V41.5065C2 48.889 7.9847 54.8737 15.3672 54.8737H40.5065C47.889 54.8737 53.8737 48.889 53.8737 41.5065V16.3672C53.8737 8.9847 47.889 3 40.5065 3Z" fill="white" fill-opacity="0.26"/>
</g>
<g filter="url(#filter1_i_72_8726)">
<path d="M42.3772 17.1471C43.8422 17.1471 45.0299 15.9594 45.0299 14.4944C45.0299 13.0294 43.8422 11.8418 42.3772 11.8418C40.9122 11.8418 39.7246 13.0294 39.7246 14.4944C39.7246 15.9594 40.9122 17.1471 42.3772 17.1471Z" fill="white" fill-opacity="0.6"/>
</g>
<g filter="url(#filter2_i_72_8726)">
<path d="M38.2302 28.9376C38.2302 34.567 33.546 39.2326 27.6405 39.2326C21.735 39.2326 17.0508 34.567 17.0508 28.9376C17.0508 23.3081 21.735 18.6426 27.6405 18.6426C33.546 18.6426 38.2302 23.3081 38.2302 28.9376Z" stroke="white" stroke-opacity="0.6" stroke-width="5.34688"/>
</g>
<defs>
<filter id="filter0_ii_72_8726" x="2" y="3" width="51.873" height="53.2098" filterUnits="userSpaceOnUse" color-interpolation-filters="sRGB">
<feFlood flood-opacity="0" result="BackgroundImageFix"/>
<feBlend mode="normal" in="SourceGraphic" in2="BackgroundImageFix" result="shape"/>
<feColorMatrix in="SourceAlpha" type="matrix" values="0 0 0 0 0 0 0 0 0 0 0 0 0 0 0 0 0 0 127 0" result="hardAlpha"/>
<feOffset dy="1.33672"/>
<feGaussianBlur stdDeviation="0.66836"/>
<feComposite in2="hardAlpha" operator="arithmetic" k2="-1" k3="1"/>
<feColorMatrix type="matrix" values="0 0 0 0 1 0 0 0 0 1 0 0 0 0 1 0 0 0 0.15 0"/>
<feBlend mode="normal" in2="shape" result="effect1_innerShadow_72_8726"/>
<feColorMatrix in="SourceAlpha" type="matrix" values="0 0 0 0 0 0 0 0 0 0 0 0 0 0 0 0 0 0 127 0" result="hardAlpha"/>
<feOffset/>
<feGaussianBlur stdDeviation="10.0254"/>
<feComposite in2="hardAlpha" operator="arithmetic" k2="-1" k3="1"/>
<feColorMatrix type="matrix" values="0 0 0 0 1 0 0 0 0 1 0 0 0 0 1 0 0 0 0.05 0"/>
<feBlend mode="normal" in2="effect1_innerShadow_72_8726" result="effect2_innerShadow_72_8726"/>
</filter>
<filter id="filter1_i_72_8726" x="39.7246" y="11.8418" width="5.30469" height="6.64141" filterUnits="userSpaceOnUse" color-interpolation-filters="sRGB">
<feFlood flood-opacity="0" result="BackgroundImageFix"/>
<feBlend mode="normal" in="SourceGraphic" in2="BackgroundImageFix" result="shape"/>
<feColorMatrix in="SourceAlpha" type="matrix" values="0 0 0 0 0 0 0 0 0 0 0 0 0 0 0 0 0 0 127 0" result="hardAlpha"/>
<feOffset dy="1.33672"/>
<feGaussianBlur stdDeviation="0.66836"/>
<feComposite in2="hardAlpha" operator="arithmetic" k2="-1" k3="1"/>
<feColorMatrix type="matrix" values="0 0 0 0 1 0 0 0 0 1 0 0 0 0 1 0 0 0 0.15 0"/>
<feBlend mode="normal" in2="shape" result="effect1_innerShadow_72_8726"/>
</filter>
<filter id="filter2_i_72_8726" x="14.377" y="15.9688" width="26.5273" height="27.2742" filterUnits="userSpaceOnUse" color-interpolation-filters="sRGB">
<feFlood flood-opacity="0" result="BackgroundImageFix"/>
<feBlend mode="normal" in="SourceGraphic" in2="BackgroundImageFix" result="shape"/>
<feColorMatrix in="SourceAlpha" type="matrix" values="0 0 0 0 0 0 0 0 0 0 0 0 0 0 0 0 0 0 127 0" result="hardAlpha"/>
<feOffset dy="1.33672"/>
<feGaussianBlur stdDeviation="0.66836"/>
<feComposite in2="hardAlpha" operator="arithmetic" k2="-1" k3="1"/>
<feColorMatrix type="matrix" values="0 0 0 0 1 0 0 0 0 1 0 0 0 0 1 0 0 0 0.15 0"/>
<feBlend mode="normal" in2="shape" result="effect1_innerShadow_72_8726"/>
</filter>
</defs>
</svg>
