<svg width="56" height="59" viewBox="0 0 56 59" fill="none" xmlns="http://www.w3.org/2000/svg">
<g filter="url(#filter0_ii_72_8721)">
<path d="M27.4105 57.6784C42.5489 57.6784 54.821 45.4063 54.821 30.2679C54.821 15.1295 42.5489 2.85742 27.4105 2.85742C12.2721 2.85742 0 15.1295 0 30.2679C0 45.4063 12.2721 57.6784 27.4105 57.6784Z" fill="white" fill-opacity="0.26"/>
</g>
<g filter="url(#filter1_i_72_8721)">
<path d="M25.5013 39.3375C24.9452 39.2324 24.1869 39.1362 23.7278 38.7538L18.4074 33.5008C17.0023 32.3306 16.5993 30.7661 17.8162 29.415C19.0331 28.0639 21.1404 27.6612 22.5455 28.8314L26.0924 31.7497L34.3686 22.4109C35.6285 21.0968 37.7312 20.6158 39.0979 21.8273C40.4645 23.0387 40.3577 25.1825 39.0979 26.4967L29.0482 38.1702C28.1924 39.0629 26.6479 39.6008 25.5013 39.3375Z" fill="white" fill-opacity="0.6"/>
</g>
<defs>
<filter id="filter0_ii_72_8721" x="0" y="2.85742" width="54.8203" height="56.157" filterUnits="userSpaceOnUse" color-interpolation-filters="sRGB">
<feFlood flood-opacity="0" result="BackgroundImageFix"/>
<feBlend mode="normal" in="SourceGraphic" in2="BackgroundImageFix" result="shape"/>
<feColorMatrix in="SourceAlpha" type="matrix" values="0 0 0 0 0 0 0 0 0 0 0 0 0 0 0 0 0 0 127 0" result="hardAlpha"/>
<feOffset dy="1.33672"/>
<feGaussianBlur stdDeviation="0.66836"/>
<feComposite in2="hardAlpha" operator="arithmetic" k2="-1" k3="1"/>
<feColorMatrix type="matrix" values="0 0 0 0 1 0 0 0 0 1 0 0 0 0 1 0 0 0 0.15 0"/>
<feBlend mode="normal" in2="shape" result="effect1_innerShadow_72_8721"/>
<feColorMatrix in="SourceAlpha" type="matrix" values="0 0 0 0 0 0 0 0 0 0 0 0 0 0 0 0 0 0 127 0" result="hardAlpha"/>
<feOffset/>
<feGaussianBlur stdDeviation="10.0254"/>
<feComposite in2="hardAlpha" operator="arithmetic" k2="-1" k3="1"/>
<feColorMatrix type="matrix" values="0 0 0 0 1 0 0 0 0 1 0 0 0 0 1 0 0 0 0.05 0"/>
<feBlend mode="normal" in2="effect1_innerShadow_72_8721" result="effect2_innerShadow_72_8721"/>
</filter>
<filter id="filter1_i_72_8721" x="17.0938" y="21.1309" width="22.9902" height="19.6102" filterUnits="userSpaceOnUse" color-interpolation-filters="sRGB">
<feFlood flood-opacity="0" result="BackgroundImageFix"/>
<feBlend mode="normal" in="SourceGraphic" in2="BackgroundImageFix" result="shape"/>
<feColorMatrix in="SourceAlpha" type="matrix" values="0 0 0 0 0 0 0 0 0 0 0 0 0 0 0 0 0 0 127 0" result="hardAlpha"/>
<feOffset dy="1.33672"/>
<feGaussianBlur stdDeviation="0.66836"/>
<feComposite in2="hardAlpha" operator="arithmetic" k2="-1" k3="1"/>
<feColorMatrix type="matrix" values="0 0 0 0 1 0 0 0 0 1 0 0 0 0 1 0 0 0 0.15 0"/>
<feBlend mode="normal" in2="shape" result="effect1_innerShadow_72_8721"/>
</filter>
</defs>
</svg>
