<svg width="32" height="32" viewBox="0 0 32 32" fill="none" xmlns="http://www.w3.org/2000/svg">
<path d="M28.1868 11.2326C28.0449 11.3162 24.6674 13.0797 24.6674 16.9897C24.8266 21.4489 28.9296 23.0127 29 23.0127C28.9296 23.0963 28.3806 25.143 26.7541 27.2885C25.4633 29.1367 24.0307 31 21.8552 31C19.7858 31 19.0429 29.7683 16.6552 29.7683C14.0909 29.7683 13.3654 31 11.4021 31C9.22657 31 7.68779 29.0368 6.32665 27.206C4.55832 24.8099 3.0553 21.0496 3.00224 17.439C2.96648 15.5258 3.35637 13.6451 4.34608 12.0476C5.74297 9.81747 8.23686 8.30357 10.9603 8.25365C13.047 8.18746 14.9041 9.60151 16.1776 9.60151C17.398 9.60151 19.6797 8.25365 22.2612 8.25365C23.3755 8.25474 26.3469 8.57054 28.1868 11.2326ZM16.0011 7.87165C15.6297 6.12444 16.6552 4.37722 17.6103 3.2627C18.8307 1.91485 20.7582 1 22.4204 1C22.5265 2.74721 21.854 4.46079 20.6521 5.7088C19.5735 7.05665 17.7164 8.07134 16.0011 7.87165Z" fill="#DDDDDD"/>
</svg>
