<svg width="25" height="25" viewBox="0 0 25 25" fill="none" xmlns="http://www.w3.org/2000/svg">
<path d="M23.0005 12.3683C23.0005 11.505 22.9291 10.875 22.7744 10.2217H12.7148V14.1183H18.6196C18.5006 15.0867 17.8577 16.545 16.4291 17.525L16.4091 17.6554L19.5897 20.0701L19.8101 20.0917C21.8338 18.26 23.0005 15.565 23.0005 12.3683Z" fill="#4285F4"/>
<path d="M12.714 22.6344C15.6068 22.6344 18.0353 21.701 19.8092 20.091L16.4282 17.5242C15.5235 18.1426 14.3092 18.5743 12.714 18.5743C9.88069 18.5743 7.47596 16.7426 6.61874 14.2109L6.49309 14.2214L3.18583 16.7298L3.14258 16.8476C4.90446 20.2776 8.5235 22.6344 12.714 22.6344Z" fill="#34A853"/>
<path d="M6.62095 14.2112C6.39476 13.5579 6.26386 12.8579 6.26386 12.1346C6.26386 11.4112 6.39476 10.7112 6.60905 10.0579L6.60306 9.91875L3.25435 7.37012L3.14478 7.42119C2.41862 8.84454 2.00195 10.4429 2.00195 12.1346C2.00195 13.8262 2.41862 15.4245 3.14478 16.8479L6.62095 14.2112Z" fill="#FBBC05"/>
<path d="M12.7141 5.69474C14.7259 5.69474 16.083 6.5464 16.8569 7.25812L19.8807 4.36477C18.0236 2.6731 15.6069 1.63477 12.7141 1.63477C8.52353 1.63477 4.90447 3.99141 3.14258 7.42139L6.60686 10.0581C7.47598 7.52643 9.88073 5.69474 12.7141 5.69474Z" fill="#EB4335"/>
</svg>
