<svg width="163" height="39" viewBox="0 0 163 39" fill="none" xmlns="http://www.w3.org/2000/svg">
<path fill-rule="evenodd" clip-rule="evenodd" d="M38.9834 14.3154C38.9382 13.9705 38.8062 13.599 38.6216 13.2979C38.5163 13.1255 38.3346 12.9383 36.4832 11.0881C34.6519 9.25868 34.4428 9.05597 34.2767 8.95446C33.8029 8.66471 33.2186 8.52709 32.7108 8.58545C32.2414 8.6392 31.9263 8.75242 31.5319 9.00852C31.3747 9.11098 30.6918 9.78414 26.2461 14.2241L21.1406 19.322L26.1927 24.3714C29.547 27.7243 31.3057 29.4667 31.4258 29.5579C32.0457 30.0279 32.8316 30.1807 33.5975 29.9803C33.8555 29.9128 34.2263 29.7321 34.4413 29.5691C34.6689 29.3967 38.4147 25.6437 38.5452 25.458C38.7335 25.1887 38.8722 24.873 38.9426 24.5483C39.0887 23.8802 38.956 23.2001 38.563 22.5987C38.4911 22.4891 38.0529 22.0367 36.9051 20.886L35.3451 19.3221L36.9051 17.7583C38.0536 16.6074 38.4911 16.1552 38.563 16.0457C38.755 15.7514 38.8826 15.4503 38.9545 15.1167C38.9938 14.9365 39.0086 14.5115 38.9834 14.3154Z" fill="url(#paint0_linear_66_5987)"/>
<path d="M18.9563 38.4446C8.47696 38.4446 0 29.9582 0 19.4672C0 9.04302 8.47696 0.556641 18.9563 0.556641C24.2297 0.556641 28.9683 2.69497 32.3723 6.16969L22.8944 15.5916C21.8932 14.5224 20.4915 13.921 18.9563 13.921C15.8192 13.921 13.3495 16.3934 13.3495 19.4672C13.3495 22.6078 15.8192 25.0802 18.9563 25.0802C20.5582 25.0802 22.0267 24.412 23.0279 23.2761L32.439 32.7647C29.0351 36.2394 24.2297 38.4446 18.9563 38.4446Z" fill="white"/>
<path d="M67.6342 13.7853H62.968C62.8828 13.1816 62.7088 12.6454 62.446 12.1767C62.1832 11.7008 61.8459 11.296 61.4339 10.9622C61.022 10.6284 60.5462 10.3727 60.0064 10.1951C59.4737 10.0176 58.8949 9.9288 58.2699 9.9288C57.1406 9.9288 56.157 10.2093 55.3189 10.7704C54.4808 11.3244 53.831 12.1341 53.3693 13.1994C52.9077 14.2576 52.6768 15.5431 52.6768 17.0559C52.6768 18.6113 52.9077 19.9181 53.3693 20.9764C53.8381 22.0346 54.4915 22.8336 55.3295 23.3734C56.1676 23.9132 57.1371 24.1831 58.2379 24.1831C58.8558 24.1831 59.4276 24.1014 59.9531 23.938C60.4858 23.7747 60.9581 23.5368 61.37 23.2243C61.782 22.9047 62.1229 22.5176 62.3928 22.063C62.6697 21.6085 62.8615 21.09 62.968 20.5076L67.6342 20.5289C67.5135 21.5304 67.2116 22.4963 66.7287 23.4267C66.2528 24.35 65.6101 25.1774 64.8004 25.9089C63.9979 26.6333 63.0391 27.2086 61.924 27.6348C60.8161 28.0538 59.5625 28.2633 58.1634 28.2633C56.2173 28.2633 54.4773 27.823 52.9432 26.9423C51.4162 26.0616 50.2088 24.7868 49.321 23.1177C48.4403 21.4487 48 19.4281 48 17.0559C48 14.6767 48.4474 12.6525 49.3423 10.9835C50.2372 9.31445 51.4517 8.04315 52.9858 7.16957C54.5199 6.28889 56.2457 5.84854 58.1634 5.84854C59.4276 5.84854 60.5994 6.0261 61.679 6.38121C62.7656 6.73633 63.728 7.25479 64.5661 7.93661C65.4041 8.61133 66.0859 9.43874 66.6115 10.4189C67.1442 11.399 67.4851 12.5211 67.6342 13.7853Z" fill="white"/>
<path d="M81.3505 20.9977V11.6014H85.8889V27.965H81.5316V24.9927H81.3612C80.9918 25.9515 80.3775 26.7221 79.5181 27.3045C78.6658 27.8869 77.6254 28.1781 76.3967 28.1781C75.3029 28.1781 74.3406 27.9295 73.5096 27.4324C72.6786 26.9352 72.0288 26.2285 71.56 25.3123C71.0984 24.3961 70.864 23.2988 70.8569 22.0204V11.6014H75.3952V21.2108C75.4023 22.1767 75.6616 22.9402 76.1729 23.5012C76.6843 24.0623 77.3697 24.3429 78.229 24.3429C78.7759 24.3429 79.2873 24.2186 79.7631 23.97C80.239 23.7143 80.6225 23.3379 80.9137 22.8407C81.212 22.3436 81.3576 21.7292 81.3505 20.9977Z" fill="white"/>
<path d="M89.519 34.1014V11.6014H93.9934V14.35H94.1958C94.3947 13.9096 94.6824 13.4622 95.0588 13.0076C95.4423 12.546 95.9395 12.1625 96.5502 11.8571C97.1681 11.5446 97.9352 11.3883 98.8514 11.3883C100.045 11.3883 101.145 11.7008 102.154 12.3258C103.162 12.9437 103.969 13.8777 104.572 15.1277C105.176 16.3706 105.478 17.9295 105.478 19.8045C105.478 21.6298 105.183 23.171 104.594 24.4281C104.011 25.6781 103.216 26.6262 102.207 27.2726C101.206 27.9118 100.084 28.2314 98.8407 28.2314C97.9601 28.2314 97.2108 28.0858 96.5929 27.7946C95.9821 27.5034 95.4814 27.1376 95.0907 26.6973C94.7001 26.2498 94.4018 25.7988 94.1958 25.3443H94.0574V34.1014H89.519ZM93.9615 19.7832C93.9615 20.7562 94.0964 21.6049 94.3663 22.3294C94.6362 23.0538 95.0268 23.6184 95.5382 24.0233C96.0495 24.421 96.671 24.6199 97.4025 24.6199C98.1412 24.6199 98.7662 24.4174 99.2775 24.0126C99.7889 23.6007 100.176 23.0325 100.439 22.3081C100.709 21.5765 100.844 20.7349 100.844 19.7832C100.844 18.8386 100.712 18.0076 100.449 17.2903C100.187 16.573 99.7995 16.0119 99.2882 15.6071C98.7768 15.2022 98.1483 14.9998 97.4025 14.9998C96.6639 14.9998 96.0389 15.1951 95.5275 15.5858C95.0233 15.9764 94.6362 16.5304 94.3663 17.2477C94.0964 17.965 93.9615 18.8102 93.9615 19.7832Z" fill="white"/>
<path d="M108.503 27.965V11.6014H113.042V27.965H108.503ZM110.783 9.49201C110.108 9.49201 109.53 9.26829 109.047 8.82085C108.571 8.3663 108.333 7.82298 108.333 7.19087C108.333 6.56587 108.571 6.02965 109.047 5.58221C109.53 5.12766 110.108 4.90039 110.783 4.90039C111.458 4.90039 112.033 5.12766 112.509 5.58221C112.992 6.02965 113.233 6.56587 113.233 7.19087C113.233 7.82298 112.992 8.3663 112.509 8.82085C112.033 9.26829 111.458 9.49201 110.783 9.49201Z" fill="white"/>
<path d="M122.707 28.2314C121.464 28.2314 120.338 27.9118 119.33 27.2726C118.328 26.6262 117.533 25.6781 116.944 24.4281C116.361 23.171 116.07 21.6298 116.07 19.8045C116.07 17.9295 116.372 16.3706 116.975 15.1277C117.579 13.8777 118.382 12.9437 119.383 12.3258C120.392 11.7008 121.496 11.3883 122.696 11.3883C123.613 11.3883 124.376 11.5446 124.987 11.8571C125.605 12.1625 126.102 12.546 126.478 13.0076C126.862 13.4622 127.153 13.9096 127.352 14.35H127.49V6.14684H132.018V27.965H127.544V25.3443H127.352C127.139 25.7988 126.837 26.2498 126.446 26.6973C126.063 27.1376 125.562 27.5034 124.944 27.7946C124.333 28.0858 123.588 28.2314 122.707 28.2314ZM124.145 24.6199C124.877 24.6199 125.495 24.421 125.999 24.0233C126.51 23.6184 126.901 23.0538 127.171 22.3294C127.448 21.6049 127.586 20.7562 127.586 19.7832C127.586 18.8102 127.451 17.965 127.181 17.2477C126.912 16.5304 126.521 15.9764 126.01 15.5858C125.498 15.1951 124.877 14.9998 124.145 14.9998C123.4 14.9998 122.771 15.2022 122.26 15.6071C121.748 16.0119 121.361 16.573 121.098 17.2903C120.836 18.0076 120.704 18.8386 120.704 19.7832C120.704 20.7349 120.836 21.5765 121.098 22.3081C121.368 23.0325 121.755 23.6007 122.26 24.0126C122.771 24.4174 123.4 24.6199 124.145 24.6199Z" fill="white"/>
<path d="M139.595 27.965H134.652L142.184 6.14684H148.129L155.65 27.965H150.707L145.242 11.1326H145.071L139.595 27.965ZM139.286 19.389H150.963V22.9899H139.286V19.389Z" fill="white"/>
<path d="M162.889 6.14684V27.965H158.276V6.14684H162.889Z" fill="white"/>
<defs>
<linearGradient id="paint0_linear_66_5987" x1="39.0004" y1="6.56323" x2="25.2095" y2="30.0671" gradientUnits="userSpaceOnUse">
<stop stop-color="#7F04E3"/>
<stop offset="1" stop-color="#FF006B"/>
</linearGradient>
</defs>
</svg>
