<svg width="48" height="47" viewBox="0 0 48 47" fill="none" xmlns="http://www.w3.org/2000/svg">
<g clip-path="url(#clip0_1_349)">
<path d="M39.6184 16.2524L39.6021 15.5597V2.45854L36.0221 6.08058C33.0924 2.45228 28.6352 0.134766 23.6428 0.134766C18.4472 0.134766 13.8315 2.64368 10.9121 6.52751L16.7799 12.5264C17.3569 11.452 18.1736 10.5301 19.1587 9.82821C20.1832 9.01935 21.6347 8.35807 23.6426 8.35807C23.8852 8.35807 24.0724 8.38652 24.21 8.44077C26.6977 8.63939 28.8544 10.0285 30.1237 12.0446L25.9684 16.2486L39.6161 16.2513" fill="#1C3AA9"/>
<path d="M23.5505 0.135742L22.8655 0.154143H9.91639L13.4963 3.776C9.90983 6.73658 7.61914 11.2475 7.61914 16.2986C7.61914 21.5531 10.099 26.2246 13.9379 29.1766L19.8674 23.2401C18.806 22.6588 17.8929 21.8355 17.2006 20.8353C16.4013 19.7988 15.7475 18.3304 15.7475 16.2989C15.7475 16.0535 15.7756 15.8642 15.8292 15.7249C16.0255 13.208 17.3986 11.0262 19.3913 9.74193L23.5448 13.9441L23.5475 0.136501" fill="#4285F4"/>
<path d="M7.61914 16.2979L7.63545 16.9906V30.0914L11.2154 26.4695C14.1453 30.0978 18.6025 32.4153 23.5949 32.4153C28.7886 32.4153 33.406 29.9064 36.3239 26.0226L30.4561 20.0237C29.8815 21.0975 29.0677 22.0212 28.0791 22.7217C27.0546 23.5306 25.6032 24.1918 23.5953 24.1918C23.3526 24.1918 23.1655 24.1634 23.0279 24.1091C20.5401 23.9105 18.3835 22.5214 17.1141 20.5053L21.2676 16.3032C16.0064 16.3221 10.0634 16.3364 7.61989 16.3005" fill="#ABABAB"/>
<path d="M10.3149 38.6745C9.92588 38.6745 9.57694 38.7493 9.26831 38.8984C8.96201 39.0424 8.69318 39.2568 8.48325 39.5246C8.27194 39.7958 8.10919 40.1253 7.99519 40.5121C7.88269 40.8957 7.82906 41.325 7.82906 41.802V43.1716C7.82906 43.6502 7.88437 44.0812 7.99519 44.4648C8.10919 44.8484 8.27025 45.1758 8.47819 45.4474C8.68612 45.7191 8.93756 45.9277 9.23306 46.0734C9.52856 46.2191 9.86044 46.2923 10.2294 46.2923C10.6086 46.2923 10.9406 46.2364 11.2258 46.1243C11.5146 46.0104 11.7559 45.8511 11.9505 45.6405C12.1451 45.4267 12.2944 45.1688 12.4005 44.8666C12.5079 44.5646 12.5715 44.2216 12.5917 43.8384H11.6588C11.6353 44.1338 11.595 44.3885 11.538 44.5972C11.481 44.8059 11.3974 44.9756 11.2864 45.1094C11.1789 45.2418 11.0381 45.3402 10.8637 45.4047C10.6927 45.4658 10.4813 45.4964 10.23 45.4964C9.96188 45.4964 9.7335 45.437 9.54562 45.318C9.35775 45.1959 9.20512 45.0297 9.08775 44.8191C8.97375 44.6105 8.88975 44.3627 8.83612 44.0793C8.78587 43.7976 8.76056 43.4939 8.76056 43.168V41.7884C8.76056 41.4388 8.79056 41.1214 8.85113 40.8361C8.91488 40.551 9.0105 40.3084 9.138 40.1081C9.2655 39.9077 9.42675 39.7533 9.621 39.6448C9.81563 39.531 10.047 39.4768 10.3155 39.4768C10.5405 39.4768 10.7331 39.5109 10.8941 39.5786C11.0554 39.6431 11.1893 39.745 11.2967 39.8821C11.4041 40.018 11.4842 40.191 11.5432 40.4013C11.6023 40.6117 11.637 40.8629 11.6589 41.1548H12.5899C12.5711 40.7564 12.5111 40.3998 12.4037 40.0925C12.2962 39.7852 12.1468 39.524 11.9537 39.3136C11.7606 39.1032 11.5294 38.9437 11.2543 38.835C10.9824 38.7263 10.6689 38.6719 10.3131 38.6719L10.3149 38.6745ZM33.0399 38.6745C32.6509 38.6745 32.3019 38.7493 31.9933 38.8984C31.687 39.0424 31.4182 39.2568 31.2083 39.5246C30.9969 39.7958 30.8342 40.1253 30.7202 40.5121C30.6077 40.8957 30.5541 41.325 30.5541 41.802V43.1716C30.5541 43.6502 30.6094 44.0812 30.7202 44.4648C30.8342 44.8484 30.9953 45.1758 31.2032 45.4474C31.4111 45.7191 31.6626 45.9277 31.9581 46.0734C32.2536 46.2191 32.5854 46.2923 32.9544 46.2923C33.3336 46.2923 33.6656 46.2364 33.9508 46.1243C34.2396 46.0104 34.4809 45.8511 34.6755 45.6405C34.8701 45.4267 35.0194 45.1688 35.1255 44.8666C35.2329 44.5646 35.2965 44.2216 35.3168 43.8384H34.3858C34.3624 44.1338 34.3221 44.3885 34.2651 44.5972C34.2081 44.8059 34.1244 44.9756 34.0134 45.1094C33.906 45.2418 33.7652 45.3402 33.5908 45.4047C33.4198 45.4658 33.2083 45.4964 32.9571 45.4964C32.6889 45.4964 32.4606 45.437 32.2727 45.318C32.0848 45.1959 31.9322 45.0297 31.8148 44.8191C31.7008 44.6105 31.6168 44.3627 31.5632 44.0793C31.5129 43.7976 31.4876 43.4939 31.4876 43.168V41.7884C31.4876 41.4388 31.5176 41.1214 31.5782 40.8361C31.6419 40.551 31.7376 40.3084 31.8651 40.1081C31.9926 39.9077 32.1538 39.7533 32.3481 39.6448C32.5427 39.531 32.7741 39.4768 33.0426 39.4768C33.2676 39.4768 33.4601 39.5109 33.6212 39.5786C33.7824 39.6431 33.9163 39.745 34.0238 39.8821C34.1312 40.018 34.2112 40.191 34.2703 40.4013C34.3294 40.6117 34.3641 40.8629 34.386 41.1548H35.3169C35.2982 40.7564 35.2382 40.3998 35.1307 40.0925C35.0233 39.7852 34.8739 39.524 34.6808 39.3136C34.4876 39.1032 34.2564 38.9437 33.9814 38.835C33.7095 38.7263 33.396 38.6719 33.0401 38.6719L33.0399 38.6745ZM15.6212 38.7764L13.2591 46.1887H14.205L14.7737 44.2542H17.2494L17.8281 46.1887H18.774L16.4089 38.7764H15.6212ZM19.7724 38.7764V46.1887H20.6912V43.287H22.1049C22.4574 43.287 22.7693 43.2377 23.0409 43.1394C23.3128 43.0375 23.5408 42.8917 23.7253 42.7016C23.9132 42.5115 24.054 42.2774 24.1479 41.9989C24.2454 41.7172 24.2938 41.3982 24.2938 41.0419C24.2938 40.7126 24.2451 40.4106 24.1479 40.1358C24.0542 39.8575 23.9149 39.6183 23.7304 39.4179C23.5459 39.2144 23.3179 39.0566 23.0409 38.9445C22.7691 38.8306 22.4572 38.7764 22.1049 38.7764H19.7724ZM25.0007 38.7764V39.5807H26.9229V46.1887H27.8417V39.5807H29.7692V38.7764H25.0007ZM36.5593 38.7764V46.1887H37.4781V42.7625H40.425V46.1887H41.3509V38.7764H40.425V41.9633H37.4762V38.7764H36.5593ZM44.8468 38.7764L42.4867 46.1887H43.4327L44.0014 44.2542H46.4771L47.0558 46.1887H48L45.6349 38.7764H44.8468ZM20.6931 39.5807H22.1068C22.3318 39.5807 22.5227 39.6215 22.6806 39.7029C22.8349 39.7788 22.9693 39.8904 23.073 40.0288C23.1771 40.1646 23.2524 40.3224 23.2995 40.5022C23.3497 40.6787 23.3751 40.8621 23.3751 41.0524C23.3751 41.261 23.3499 41.4564 23.2995 41.6328C23.2526 41.8058 23.1771 41.9553 23.073 42.0881C22.9723 42.2137 22.8414 42.3119 22.6806 42.3835C22.5231 42.4548 22.3318 42.4904 22.1068 42.4904H20.6931V39.5807ZM16.0134 40.0796L17.0147 43.4497H15.015L16.0134 40.0796ZM45.2391 40.0796L46.2403 43.4497H44.2406L45.2391 40.0796ZM1.89375 40.5785C1.66219 40.5785 1.4625 40.6379 1.29488 40.7568C1.13044 40.8756 0.994875 41.0368 0.882375 41.2405L0.867375 40.6806H0V46.1889H0.890625V42.2484C0.974437 42.0141 1.0935 41.8311 1.24781 41.6935C1.40531 41.5577 1.605 41.49 1.84669 41.49L2.05294 41.5002C2.11885 41.5044 2.18443 41.5129 2.24925 41.5257L2.24419 40.65C2.23069 40.6432 2.20894 40.6364 2.17856 40.6297C2.14911 40.6188 2.11882 40.6103 2.088 40.6043C2.05425 40.5975 2.01919 40.5924 1.98225 40.5891C1.9485 40.5823 1.9185 40.5789 1.89169 40.5789L1.89375 40.5785ZM4.88775 40.5785C4.63159 40.5781 4.37749 40.6247 4.13775 40.716C3.894 40.8077 3.68156 40.9588 3.49369 41.1713C3.30919 41.38 3.15994 41.6499 3.04369 41.9859C2.92969 42.3184 2.87269 42.7257 2.87269 43.2128V43.8339C2.87269 44.2546 2.92144 44.6196 3.01856 44.9284C3.11569 45.2372 3.25481 45.4937 3.43613 45.6972C3.62063 45.8976 3.84375 46.0469 4.1055 46.1453C4.36725 46.2438 4.6605 46.2929 4.98619 46.2929C5.22094 46.2929 5.43056 46.2692 5.61525 46.2216C5.80312 46.1741 5.96925 46.1129 6.11344 46.0383C6.25781 45.9602 6.38156 45.872 6.48581 45.7735C6.59006 45.6751 6.67894 45.5732 6.75244 45.47L6.28931 44.8998C6.21544 44.9914 6.13669 45.0762 6.05306 45.1543C5.96925 45.2291 5.87681 45.2953 5.77631 45.3529C5.67091 45.4081 5.55954 45.4508 5.44444 45.48C5.32388 45.5123 5.18756 45.5259 5.03681 45.5259C4.62431 45.5259 4.30556 45.3918 4.08581 45.1238C3.86775 44.8558 3.75881 44.4263 3.75881 43.8339V43.7068H6.79631V43.1825C6.79631 42.7617 6.76106 42.3899 6.69056 42.0674C6.62006 41.7449 6.50775 41.4737 6.35344 41.2529C6.2033 41.0357 5.9982 40.8634 5.75963 40.754C5.51813 40.6386 5.22619 40.581 4.884 40.581L4.88775 40.5785ZM4.88775 41.3525C5.08238 41.3525 5.24344 41.3881 5.37075 41.4594C5.49687 41.5294 5.60137 41.6333 5.67262 41.7597C5.74987 41.8887 5.80519 42.0431 5.83875 42.223C5.87569 42.3994 5.89913 42.5948 5.90925 42.8084V42.9305H3.76387C3.77737 42.6217 3.81412 42.3652 3.87637 42.1617C3.93862 41.9582 4.01569 41.7969 4.11263 41.678C4.21331 41.5558 4.329 41.4693 4.45987 41.4234C4.59075 41.3775 4.73325 41.3521 4.88737 41.3521L4.88775 41.3525Z" fill="#A6A6A6"/>
</g>
<defs>
<clipPath id="clip0_1_349">
<rect width="48" height="46.2857" fill="white" transform="translate(0 0.134766)"/>
</clipPath>
</defs>
</svg>
